<?xml version="1.0" encoding="UTF-8" standalone="no"?>
<!DOCTYPE svg PUBLIC "-//W3C//DTD SVG 1.1//EN" "http://www.w3.org/Graphics/SVG/1.1/DTD/svg11.dtd">
<svg xmlns="http://www.w3.org/2000/svg" version="1.1" viewBox="0.00 0.00 160.00 100.00">
<g stroke-width="2.00" fill="none" stroke-linecap="butt">
<path stroke="#808080" vector-effect="non-scaling-stroke" d="
  M 12.08 47.50
  A 0.33 0.33 0.0 0 1 11.75 47.17
  L 11.75 35.83
  A 0.33 0.33 0.0 0 0 11.42 35.50
  L 4.83 35.50
  A 0.33 0.33 0.0 0 0 4.50 35.83
  L 4.50 64.42
  A 0.33 0.33 0.0 0 0 4.83 64.75
  L 11.42 64.75
  A 0.33 0.33 0.0 0 0 11.75 64.42
  L 11.75 53.33
  A 0.33 0.33 0.0 0 1 12.08 53.00
  L 37.67 53.00
  A 0.33 0.33 0.0 0 1 38.00 53.33
  L 38.00 64.42
  A 0.33 0.33 0.0 0 0 38.33 64.75
  L 44.92 64.75
  A 0.33 0.33 0.0 0 0 45.25 64.42
  L 45.25 35.83
  A 0.33 0.33 0.0 0 0 44.92 35.50
  L 38.33 35.50
  A 0.33 0.33 0.0 0 0 38.00 35.83
  L 38.00 47.17
  A 0.33 0.33 0.0 0 1 37.67 47.50
  L 12.08 47.50"
/>
<path stroke="#808080" vector-effect="non-scaling-stroke" d="
  M 55.8250 35.8064
  A 0.30 0.30 0.0 0 0 55.5255 35.5059
  L 48.8255 35.4942
  A 0.30 0.30 0.0 0 0 48.5250 35.7937
  L 48.4750 64.4336
  A 0.30 0.30 0.0 0 0 48.7745 64.7341
  L 55.4745 64.7458
  A 0.30 0.30 0.0 0 0 55.7750 64.4463
  L 55.8250 35.8064"
/>
<path stroke="#808080" vector-effect="non-scaling-stroke" d="
  M 66.85 46.62
  Q 74.43 54.68 81.99 62.76
  C 84.99 65.97 88.65 65.17 91.54 62.07
  Q 98.64 54.44 105.76 46.78
  Q 106.40 46.10 106.40 47.03
  L 106.52 64.26
  Q 106.52 64.75 107.01 64.75
  L 112.89 64.75
  Q 113.52 64.75 113.52 64.12
  L 113.49 38.02
  Q 113.49 37.56 113.16 37.24
  C 110.04 34.22 106.98 35.78 104.31 38.63
  Q 95.53 48.03 86.89 57.18
  A 0.59 0.59 0.0 0 1 86.03 57.18
  Q 77.09 47.61 68.02 38.38
  C 65.42 35.74 62.06 34.12 59.36 37.43
  Q 59.00 37.87 59.00 38.45
  L 59.00 64.00
  Q 59.00 64.75 59.75 64.75
  L 65.61 64.75
  Q 66.22 64.75 66.23 64.14
  L 66.38 46.80
  Q 66.39 46.13 66.85 46.62"
/>
<path stroke="#808080" vector-effect="non-scaling-stroke" d="
  M 126.75 64.22
  C 135.02 64.75 149.24 66.49 155.40 59.83
  Q 155.78 59.43 155.81 58.87
  Q 156.11 52.95 155.99 44.24
  C 155.90 37.57 150.12 35.78 144.47 35.76
  C 137.90 35.73 116.69 33.01 116.27 43.75
  Q 116.15 46.53 116.28 55.32
  C 116.36 61.70 121.14 63.86 126.75 64.22"
/>
<path stroke="#808080" vector-effect="non-scaling-stroke" d="
  M 127.35 58.94
  L 144.91 58.94
  A 3.65 3.65 0.0 0 0 148.56 55.29
  L 148.56 44.34
  A 5.73 3.32 -0.0 0 0 142.83 41.02
  L 129.43 41.02
  A 5.73 3.32 0.0 0 0 123.70 44.34
  L 123.70 55.29
  A 3.65 3.65 0.0 0 0 127.35 58.94"
/>
</g>
<path fill="#000000" d="
  M 0.00 0.00
  L 160.00 0.00
  L 160.00 100.00
  L 0.00 100.00
  L 0.00 0.00
  Z
  M 12.08 47.50
  A 0.33 0.33 0.0 0 1 11.75 47.17
  L 11.75 35.83
  A 0.33 0.33 0.0 0 0 11.42 35.50
  L 4.83 35.50
  A 0.33 0.33 0.0 0 0 4.50 35.83
  L 4.50 64.42
  A 0.33 0.33 0.0 0 0 4.83 64.75
  L 11.42 64.75
  A 0.33 0.33 0.0 0 0 11.75 64.42
  L 11.75 53.33
  A 0.33 0.33 0.0 0 1 12.08 53.00
  L 37.67 53.00
  A 0.33 0.33 0.0 0 1 38.00 53.33
  L 38.00 64.42
  A 0.33 0.33 0.0 0 0 38.33 64.75
  L 44.92 64.75
  A 0.33 0.33 0.0 0 0 45.25 64.42
  L 45.25 35.83
  A 0.33 0.33 0.0 0 0 44.92 35.50
  L 38.33 35.50
  A 0.33 0.33 0.0 0 0 38.00 35.83
  L 38.00 47.17
  A 0.33 0.33 0.0 0 1 37.67 47.50
  L 12.08 47.50
  Z
  M 55.8250 35.8064
  A 0.30 0.30 0.0 0 0 55.5255 35.5059
  L 48.8255 35.4942
  A 0.30 0.30 0.0 0 0 48.5250 35.7937
  L 48.4750 64.4336
  A 0.30 0.30 0.0 0 0 48.7745 64.7341
  L 55.4745 64.7458
  A 0.30 0.30 0.0 0 0 55.7750 64.4463
  L 55.8250 35.8064
  Z
  M 66.85 46.62
  Q 74.43 54.68 81.99 62.76
  C 84.99 65.97 88.65 65.17 91.54 62.07
  Q 98.64 54.44 105.76 46.78
  Q 106.40 46.10 106.40 47.03
  L 106.52 64.26
  Q 106.52 64.75 107.01 64.75
  L 112.89 64.75
  Q 113.52 64.75 113.52 64.12
  L 113.49 38.02
  Q 113.49 37.56 113.16 37.24
  C 110.04 34.22 106.98 35.78 104.31 38.63
  Q 95.53 48.03 86.89 57.18
  A 0.59 0.59 0.0 0 1 86.03 57.18
  Q 77.09 47.61 68.02 38.38
  C 65.42 35.74 62.06 34.12 59.36 37.43
  Q 59.00 37.87 59.00 38.45
  L 59.00 64.00
  Q 59.00 64.75 59.75 64.75
  L 65.61 64.75
  Q 66.22 64.75 66.23 64.14
  L 66.38 46.80
  Q 66.39 46.13 66.85 46.62
  Z
  M 126.75 64.22
  C 135.02 64.75 149.24 66.49 155.40 59.83
  Q 155.78 59.43 155.81 58.87
  Q 156.11 52.95 155.99 44.24
  C 155.90 37.57 150.12 35.78 144.47 35.76
  C 137.90 35.73 116.69 33.01 116.27 43.75
  Q 116.15 46.53 116.28 55.32
  C 116.36 61.70 121.14 63.86 126.75 64.22
  Z"
/>
<path fill="#ffffff" d="
  M 12.08 47.50
  L 37.67 47.50
  A 0.33 0.33 0.0 0 0 38.00 47.17
  L 38.00 35.83
  A 0.33 0.33 0.0 0 1 38.33 35.50
  L 44.92 35.50
  A 0.33 0.33 0.0 0 1 45.25 35.83
  L 45.25 64.42
  A 0.33 0.33 0.0 0 1 44.92 64.75
  L 38.33 64.75
  A 0.33 0.33 0.0 0 1 38.00 64.42
  L 38.00 53.33
  A 0.33 0.33 0.0 0 0 37.67 53.00
  L 12.08 53.00
  A 0.33 0.33 0.0 0 0 11.75 53.33
  L 11.75 64.42
  A 0.33 0.33 0.0 0 1 11.42 64.75
  L 4.83 64.75
  A 0.33 0.33 0.0 0 1 4.50 64.42
  L 4.50 35.83
  A 0.33 0.33 0.0 0 1 4.83 35.50
  L 11.42 35.50
  A 0.33 0.33 0.0 0 1 11.75 35.83
  L 11.75 47.17
  A 0.33 0.33 0.0 0 0 12.08 47.50
  Z"
/>
<rect fill="#ffffff" x="-3.65" y="-14.62" transform="translate(52.15,50.12) rotate(0.1)" width="7.30" height="29.24" rx="0.30"/>
<path fill="#ffffff" d="
  M 66.38 46.80
  L 66.23 64.14
  Q 66.22 64.75 65.61 64.75
  L 59.75 64.75
  Q 59.00 64.75 59.00 64.00
  L 59.00 38.45
  Q 59.00 37.87 59.36 37.43
  C 62.06 34.12 65.42 35.74 68.02 38.38
  Q 77.09 47.61 86.03 57.18
  A 0.59 0.59 0.0 0 0 86.89 57.18
  Q 95.53 48.03 104.31 38.63
  C 106.98 35.78 110.04 34.22 113.16 37.24
  Q 113.49 37.56 113.49 38.02
  L 113.52 64.12
  Q 113.52 64.75 112.89 64.75
  L 107.01 64.75
  Q 106.52 64.75 106.52 64.26
  L 106.40 47.03
  Q 106.40 46.10 105.76 46.78
  Q 98.64 54.44 91.54 62.07
  C 88.65 65.17 84.99 65.97 81.99 62.76
  Q 74.43 54.68 66.85 46.62
  Q 66.39 46.13 66.38 46.80
  Z"
/>
<path fill="#ffffff" d="
  M 126.75 64.22
  C 121.14 63.86 116.36 61.70 116.28 55.32
  Q 116.15 46.53 116.27 43.75
  C 116.69 33.01 137.90 35.73 144.47 35.76
  C 150.12 35.78 155.90 37.57 155.99 44.24
  Q 156.11 52.95 155.81 58.87
  Q 155.78 59.43 155.40 59.83
  C 149.24 66.49 135.02 64.75 126.75 64.22
  Z
  M 127.35 58.94
  L 144.91 58.94
  A 3.65 3.65 0.0 0 0 148.56 55.29
  L 148.56 44.34
  A 5.73 3.32 -0.0 0 0 142.83 41.02
  L 129.43 41.02
  A 5.73 3.32 0.0 0 0 123.70 44.34
  L 123.70 55.29
  A 3.65 3.65 0.0 0 0 127.35 58.94
  Z"
/>
<path fill="#000000" d="
  M 127.35 58.94
  A 3.65 3.65 0.0 0 1 123.70 55.29
  L 123.70 44.34
  A 5.73 3.32 -0.0 0 1 129.43 41.02
  L 142.83 41.02
  A 5.73 3.32 0.0 0 1 148.56 44.34
  L 148.56 55.29
  A 3.65 3.65 0.0 0 1 144.91 58.94
  L 127.35 58.94
  Z"
/>
</svg>
